<svg width="12" height="8" viewBox="0 0 12 8" fill="none" xmlns="http://www.w3.org/2000/svg">
<path d="M5.10211 0.506139L5.69669 0.121992C5.94844 -0.0406641 6.35554 -0.0406641 6.60462 0.121992L11.8112 3.48414C12.0629 3.6468 12.0629 3.90981 11.8112 4.07074L6.60462 7.43462C6.35286 7.59727 5.94577 7.59727 5.69669 7.43462L5.10211 7.05047C4.84767 6.88608 4.85303 6.61787 5.11282 6.45695L8.34014 4.47046H0.642785C0.286575 4.47046 0 4.28531 0 4.05517V3.50144C0 3.2713 0.286575 3.08615 0.642785 3.08615H8.34014L5.11282 1.09966C4.85035 0.938736 4.845 0.670526 5.10211 0.506139Z" fill="#888888"/>
</svg>
