<svg width="24" height="24" viewBox="0 0 24 24" fill="none" xmlns="http://www.w3.org/2000/svg">
<path d="M23.166 11.583C23.166 17.9815 17.9797 23.166 11.583 23.166C5.18634 23.166 0 17.9815 0 11.583C0 5.18821 5.18634 0 11.583 0C17.9797 0 23.166 5.18821 23.166 11.583ZM11.583 13.9183C10.3965 13.9183 9.43455 14.8802 9.43455 16.0668C9.43455 17.2533 10.3965 18.2152 11.583 18.2152C12.7696 18.2152 13.7315 17.2533 13.7315 16.0668C13.7315 14.8802 12.7696 13.9183 11.583 13.9183ZM9.54323 6.1957L9.88969 12.5477C9.9059 12.8449 10.1517 13.0776 10.4493 13.0776H12.7167C13.0144 13.0776 13.2601 12.8449 13.2763 12.5477L13.6228 6.1957C13.6403 5.87464 13.3847 5.60468 13.0632 5.60468H10.1028C9.78129 5.60468 9.52572 5.87464 9.54323 6.1957Z" fill="#958D8D"/>
</svg>
