<svg width="21" height="17" viewBox="0 0 21 17" fill="none" xmlns="http://www.w3.org/2000/svg">
<path d="M0 4.59473V3.93848C0 3.39482 0.440713 2.95411 0.984375 2.95411H15.75V0.985357C15.75 0.108976 16.8123 -0.328866 17.4305 0.28928L20.7117 3.57053C21.0961 3.95497 21.0961 4.57824 20.7117 4.96264L17.4305 8.24389C16.8146 8.85962 15.75 8.42789 15.75 7.54786V5.57911H0.984375C0.440713 5.57911 0 5.13839 0 4.59473ZM20.0156 10.8291H5.25V8.86036C5.25 7.98615 4.18925 7.54458 3.56955 8.16428L0.288299 11.4455C-0.0960996 11.83 -0.0960996 12.4532 0.288299 12.8376L3.56955 16.1189C4.18593 16.7352 5.25 16.3021 5.25 15.4229V13.4541H20.0156C20.5593 13.4541 21 13.0134 21 12.4697V11.8135C21 11.2698 20.5593 10.8291 20.0156 10.8291Z" fill="#333333"/>
</svg>
