<svg width="29" height="23" viewBox="0 0 29 23" fill="none" xmlns="http://www.w3.org/2000/svg">
<path d="M28.4506 8.14297C28.6715 7.96738 29 8.13164 29 8.40918V19.9922C29 21.4932 27.7822 22.7109 26.2812 22.7109H2.71875C1.21777 22.7109 0 21.4932 0 19.9922V8.41484C0 8.13164 0.322852 7.97305 0.549414 8.14863C1.81816 9.13418 3.50039 10.3859 9.27773 14.583C10.4729 15.4553 12.4893 17.2904 14.5 17.2791C16.5221 17.2961 18.5781 15.4213 19.7279 14.583C25.5053 10.3859 27.1818 9.12852 28.4506 8.14297ZM14.5 15.4609C15.8141 15.4836 17.7059 13.807 18.6574 13.116C26.1736 7.66152 26.7457 7.18574 28.4789 5.82637C28.8074 5.57148 29 5.175 29 4.75586V3.67969C29 2.17871 27.7822 0.960938 26.2812 0.960938H2.71875C1.21777 0.960938 0 2.17871 0 3.67969V4.75586C0 5.175 0.192578 5.56582 0.521094 5.82637C2.2543 7.18008 2.82637 7.66152 10.3426 13.116C11.2941 13.807 13.1859 15.4836 14.5 15.4609Z" fill="#FBFBFB"/>
</svg>
