<svg width="58" height="50" viewBox="0 0 58 50" fill="none" xmlns="http://www.w3.org/2000/svg">
<path d="M14.2857 50H42.8571V5.35714C42.8571 2.39955 40.4576 0 37.5 0H19.6429C16.6853 0 14.2857 2.39955 14.2857 5.35714V50ZM21.4286 7.14286H35.7143V10.7143H21.4286V7.14286ZM57.1429 16.0714V44.6429C57.1429 47.6004 54.7433 50 51.7857 50H46.4286V10.7143H51.7857C54.7433 10.7143 57.1429 13.1138 57.1429 16.0714ZM10.7143 50H5.35714C2.39955 50 0 47.6004 0 44.6429V16.0714C0 13.1138 2.39955 10.7143 5.35714 10.7143H10.7143V50Z" fill="black"/>
</svg>
