<svg width="29" height="38" viewBox="0 0 29 38" fill="none" xmlns="http://www.w3.org/2000/svg">
<path d="M24.9375 11.875H3.5625C1.59496 11.875 0 13.47 0 15.4375V32.0625C0 34.03 1.59496 35.625 3.5625 35.625H4.75V36.8125C4.75 37.4686 5.28141 38 5.9375 38H8.3125C8.96859 38 9.5 37.4686 9.5 36.8125V35.625H19V36.8125C19 37.4686 19.5314 38 20.1875 38H22.5625C23.2186 38 23.75 37.4686 23.75 36.8125V35.625H24.9375C26.905 35.625 28.5 34.03 28.5 32.0625V15.4375C28.5 13.47 26.905 11.875 24.9375 11.875ZM23.75 27.9062C23.75 28.2343 23.4843 28.5 23.1562 28.5H5.34375C5.0157 28.5 4.75 28.2343 4.75 27.9062V26.7188C4.75 26.3907 5.0157 26.125 5.34375 26.125H23.1562C23.4843 26.125 23.75 26.3907 23.75 26.7188V27.9062ZM23.75 20.7812C23.75 21.1093 23.4843 21.375 23.1562 21.375H5.34375C5.0157 21.375 4.75 21.1093 4.75 20.7812V19.5938C4.75 19.2657 5.0157 19 5.34375 19H23.1562C23.4843 19 23.75 19.2657 23.75 19.5938V20.7812ZM10.6875 3.5625H17.8125V9.5H21.375V3.5625C21.375 1.59496 19.78 0 17.8125 0H10.6875C8.71996 0 7.125 1.59496 7.125 3.5625V9.5H10.6875V3.5625Z" fill="black"/>
</svg>
